<?xml version="1.0" encoding="UTF-8"?>
<svg width="182px" height="30px" viewBox="0 0 182 30" version="1.1" xmlns="http://www.w3.org/2000/svg" xmlns:xlink="http://www.w3.org/1999/xlink">
    <title>Logo-Black</title>
    <g id="Homepage" stroke="none" stroke-width="1" fill="none" fill-rule="evenodd">
        <g id="Template---Homepage" transform="translate(-40.000000, -105.000000)">
            <g id="Logo-Black" transform="translate(40.000000, 105.000000)">
                <polygon id="Path" fill="#083787" points="0 1 0 30 16 30 16 26.3381713 3.97860963 26.3381713 3.97860963 1"></polygon>
                <circle id="Oval" fill="#FF575B" cx="180" cy="28" r="2"></circle>
                <path d="M29.6537678,10 C32.3014257,10 35.0712831,11.1088296 36.3340122,13.2854209 L36.3340122,10.4106776 L40,10.4106776 L40,29.5893224 L36.3340122,29.5893224 L36.3340122,26.6324435 C35.0712831,28.8090349 32.3014257,30 29.6537678,30 C24.4399185,30 20,26.0574949 20,19.9794661 C20,13.8603696 24.4399185,10 29.6537678,10 Z M29.9796334,13.6550308 C26.5580448,13.6550308 23.7881874,16.1190965 23.7881874,19.9383984 C23.7881874,23.7166324 26.5580448,26.3449692 29.9796334,26.3449692 C33.3604888,26.3449692 36.293279,24.0041068 36.293279,19.9383984 C36.293279,15.8316222 33.0346232,13.6550308 29.9796334,13.6550308 Z" id="Combined-Shape" fill="#083787"></path>
                <polygon id="Path" fill="#083787" points="68.6186667 30 76 10 71.8613333 10 66.8693333 24.0042827 61.8773333 10 58.1226667 10 53.1306667 24.0042827 48.1386667 10 44 10 51.5946667 30 54.752 30 60 15.3104925 65.4186667 30"></polygon>
                <path d="M92.6448203,1 C98.4693446,1 100.839323,5.54571843 100.839323,10.0914369 C100.839323,14.3846154 98.7906977,18.5515239 93.6088795,19.0145138 L101,30 L96.4608879,30 L89.3107822,19.1407837 L85.7758985,19.1407837 L85.7758985,30 L82,30 L82,1 L92.6448203,1 Z M92.5243129,4.66182874 L85.7758985,4.66182874 L85.7758985,15.478955 L92.3636364,15.478955 C95.7378436,15.478955 96.9830867,12.7851959 96.9830867,10.0914369 C96.9830867,7.43976778 95.7378436,4.66182874 92.5243129,4.66182874 Z" id="Combined-Shape" fill="#083787"></path>
                <path d="M115.653768,10 C118.301426,10 121.071283,11.1088296 122.334012,13.2854209 L122.334012,10.4106776 L126,10.4106776 L126,29.5893224 L122.334012,29.5893224 L122.334012,26.6324435 C121.071283,28.8090349 118.301426,30 115.653768,30 C110.439919,30 106,26.0574949 106,19.9794661 C106,13.8603696 110.439919,10 115.653768,10 Z M115.979633,13.6550308 C112.558045,13.6550308 109.788187,16.1190965 109.788187,19.9383984 C109.788187,23.7166324 112.558045,26.3449692 115.979633,26.3449692 C119.360489,26.3449692 122.293279,24.0041068 122.293279,19.9383984 C122.293279,15.8316222 119.034623,13.6550308 115.979633,13.6550308 Z" id="Combined-Shape" fill="#083787"></path>
                <path d="M136.928058,19.4339623 C136.928058,15.2830189 139.776978,13.7316562 142.625899,13.7316562 C145.388489,13.7316562 147.071942,15.6603774 147.071942,18.9308176 L147.071942,30 L151,30 L151,18.6792453 C151,13.1865828 148.23741,10 143.230216,10 C141.028777,10 138.136691,11.0062893 136.928058,13.3542977 L136.928058,10.4192872 L133,10.4192872 L133,30 L136.928058,30 L136.928058,19.4339623 Z" id="Path" fill="#083787"></path>
                <polygon id="Path" fill="#083787" points="160.829787 20.5131761 169.893617 30 175 30 164.446809 18.9736477 172.957447 10.5686546 169.893617 8.29903065 160.829787 17.3509015 160.829787 0 157 0 157 30 160.829787 30"></polygon>
            </g>
        </g>
    </g>
</svg>